<?xml version="1.0" encoding="utf-8"?>
<!DOCTYPE svg PUBLIC "-//W3C//DTD SVG 1.1//EN" "http://www.w3.org/Graphics/SVG/1.1/DTD/svg11.dtd">
<svg version="1.1" id="Layer_1" xmlns="http://www.w3.org/2000/svg" xmlns:xlink="http://www.w3.org/1999/xlink" x="0px" y="0px"
	 viewBox="0 0 169 56" enable-background="new 0 0 169 56" xml:space="preserve">
<g id="Page-1">
	<g id="OG_UI_FIRECHAT" transform="translate(-438.000000, -406.000000)">
		<g id="Download_on_the_App_Store_Badge_US-UK_RGB_blk_092917" transform="translate(438.000000, 406.000000)">
			<g id="Group_1_">
				<g id="Shape">
					<path fill="#A6A6A6" d="M155.1,0H13.4c-0.5,0-1,0-1.5,0c-0.4,0-0.9,0-1.3,0C9.6,0,8.7,0.1,7.8,0.3C6.8,0.4,5.9,0.7,5.1,1.1
						c-0.8,0.4-1.6,1-2.3,1.7C2.1,3.5,1.6,4.2,1.2,5.1C0.7,5.9,0.4,6.8,0.3,7.7C0.1,8.7,0,9.6,0,10.5c0,0.4,0,0.9,0,1.3v32.4
						c0,0.4,0,0.9,0,1.3c0,0.9,0.1,1.9,0.3,2.8c0.2,0.9,0.5,1.8,0.9,2.7c0.4,0.8,1,1.6,1.7,2.3c0.7,0.7,1.4,1.2,2.3,1.7
						c0.8,0.4,1.7,0.7,2.7,0.9c0.9,0.2,1.9,0.2,2.8,0.2c0.4,0,0.9,0,1.3,0c0.5,0,1,0,1.5,0h141.7c0.5,0,1,0,1.5,0c0.4,0,0.9,0,1.3,0
						c0.9,0,1.9-0.1,2.8-0.2c0.9-0.2,1.8-0.5,2.7-0.9c0.8-0.4,1.6-1,2.3-1.7c0.7-0.7,1.2-1.4,1.7-2.3c0.4-0.8,0.7-1.7,0.9-2.7
						c0.2-0.9,0.2-1.9,0.3-2.8c0-0.4,0-0.9,0-1.3c0-0.5,0-1,0-1.5V13.4c0-0.5,0-1,0-1.5c0-0.4,0-0.9,0-1.3c0-0.9-0.1-1.9-0.3-2.8
						c-0.2-0.9-0.4-1.8-0.9-2.7c-0.9-1.7-2.2-3.1-3.9-3.9c-0.8-0.4-1.8-0.7-2.7-0.9c-0.9-0.2-1.9-0.2-2.8-0.2c-0.4,0-0.9,0-1.3,0
						C156.1,0,155.6,0,155.1,0L155.1,0z"/>
					<path d="M11.9,54.8c-0.4,0-0.8,0-1.3,0c-0.9,0-1.8-0.1-2.6-0.2c-0.8-0.1-1.6-0.4-2.3-0.8c-0.7-0.4-1.4-0.8-2-1.4
						c-0.6-0.6-1.1-1.2-1.4-2c-0.4-0.7-0.6-1.5-0.8-2.3c-0.1-0.9-0.2-1.7-0.2-2.6c0-0.3,0-1.3,0-1.3V11.8c0,0,0-1,0-1.3
						c0-0.9,0.1-1.8,0.2-2.6c0.1-0.8,0.4-1.6,0.8-2.3c0.4-0.7,0.9-1.4,1.4-2c0.6-0.6,1.2-1.1,2-1.4C6.4,1.9,7.2,1.6,8,1.5
						c0.9-0.1,1.8-0.2,2.6-0.2l1.3,0h144.7l1.3,0c0.9,0,1.8,0.1,2.6,0.2c0.8,0.1,1.6,0.4,2.4,0.8c1.5,0.7,2.7,1.9,3.4,3.4
						c0.4,0.7,0.6,1.5,0.8,2.3c0.1,0.9,0.2,1.8,0.2,2.6c0,0.4,0,0.8,0,1.2c0,0.5,0,1,0,1.5v29.3c0,0.5,0,1,0,1.5c0,0.5,0,0.9,0,1.3
						c0,0.9-0.1,1.7-0.2,2.6c-0.1,0.8-0.4,1.6-0.8,2.3c-0.4,0.7-0.9,1.4-1.4,1.9c-0.6,0.6-1.2,1.1-2,1.4c-0.7,0.4-1.5,0.6-2.3,0.8
						c-0.9,0.1-1.8,0.2-2.6,0.2c-0.4,0-0.8,0-1.3,0l-1.5,0L11.9,54.8z"/>
				</g>
				<g id="_Group_" transform="translate(13.675000, 12.200000)">
					<g id="_Group_2">
						<g id="_Group_3">
							<path id="_Path_" fill="#FFFFFF" d="M21.2,16.2c0-2.4,1.3-4.6,3.3-5.8c-1.3-1.8-3.4-3-5.6-3c-2.4-0.2-4.7,1.4-5.9,1.4
								C11.8,8.8,10,7.4,8,7.5c-2.6,0.1-5,1.5-6.3,3.8C-1.1,16,1,22.8,3.6,26.6c1.3,1.9,2.8,3.9,4.8,3.9c2-0.1,2.7-1.2,5-1.2
								c2.3,0,3,1.2,5.1,1.2c2.1,0,3.4-1.9,4.7-3.7c0.9-1.3,1.7-2.8,2.1-4.3C22.8,21.3,21.2,18.9,21.2,16.2z"/>
							<path id="_Path_2" fill="#FFFFFF" d="M17.4,4.9c1.1-1.4,1.7-3.1,1.6-4.9c-1.7,0.2-3.4,1-4.5,2.3c-1.1,1.3-1.7,3-1.6,4.7
								C14.6,7.1,16.3,6.3,17.4,4.9z"/>
						</g>
					</g>
					<g id="Group" transform="translate(34.208333, 12.600000)">
						<path id="Shape_1_" fill="#FFFFFF" d="M11.7,13.2H5l-1.6,4.7H0.6L6.9,0.5h2.9l6.3,17.4h-2.9L11.7,13.2z M5.7,11H11L8.4,3.4
							H8.3L5.7,11z"/>
						<path id="Shape_2_" fill="#FFFFFF" d="M29.8,11.6c0,3.9-2.1,6.5-5.3,6.5c-1.7,0.1-3.2-0.8-4-2.2h-0.1v6.3h-2.6V5.2h2.5v2.1h0
							c0.8-1.4,2.4-2.3,4.1-2.2C27.7,5.1,29.8,7.6,29.8,11.6z M27.1,11.6c0-2.6-1.3-4.3-3.4-4.3c-2,0-3.3,1.7-3.3,4.3
							c0,2.6,1.3,4.3,3.3,4.3C25.8,15.8,27.1,14.1,27.1,11.6z"/>
						<path id="Shape_3_" fill="#FFFFFF" d="M43.8,11.6c0,3.9-2.1,6.5-5.3,6.5c-1.7,0.1-3.2-0.8-4-2.2h-0.1v6.3h-2.6V5.2h2.5v2.1h0
							c0.8-1.4,2.4-2.3,4.1-2.2C41.7,5.1,43.8,7.6,43.8,11.6z M41.1,11.6c0-2.6-1.3-4.3-3.4-4.3c-2,0-3.3,1.7-3.3,4.3
							c0,2.6,1.3,4.3,3.3,4.3C39.8,15.8,41.1,14.1,41.1,11.6L41.1,11.6z"/>
						<path id="Shape_4_" fill="#FFFFFF" d="M53.1,13.1c0.2,1.7,1.9,2.9,4.2,2.9c2.2,0,3.8-1.1,3.8-2.7c0-1.3-1-2.2-3.2-2.7L55.6,10
							c-3.2-0.8-4.7-2.3-4.7-4.7c0-3,2.6-5.1,6.4-5.1c3.7,0,6.2,2.1,6.3,5.1h-2.6c-0.2-1.7-1.6-2.8-3.7-2.8c-2.1,0-3.6,1.1-3.6,2.6
							c0,1.2,0.9,2,3.2,2.5l1.9,0.5c3.6,0.8,5.1,2.3,5.1,4.8c0,3.3-2.6,5.3-6.8,5.3c-3.9,0-6.5-2-6.7-5.1L53.1,13.1z"/>
						<path id="Shape_5_" fill="#FFFFFF" d="M69.5,2.2v3h2.4v2.1h-2.4v7c0,1.1,0.5,1.6,1.6,1.6c0.3,0,0.6,0,0.9-0.1v2
							c-0.5,0.1-1,0.1-1.5,0.1c-2.6,0-3.6-1-3.6-3.4V7.3H65V5.2h1.9v-3H69.5z"/>
						<path id="Shape_6_" fill="#FFFFFF" d="M73.3,11.6c0-4,2.4-6.5,6-6.5c3.7,0,6,2.5,6,6.5c0,4-2.3,6.5-6,6.5
							C75.7,18.1,73.3,15.6,73.3,11.6z M82.8,11.6c0-2.7-1.3-4.4-3.4-4.4c-2.1,0-3.4,1.6-3.4,4.4c0,2.7,1.3,4.3,3.4,4.3
							C81.5,15.9,82.8,14.3,82.8,11.6L82.8,11.6z"/>
						<path id="Shape_7_" fill="#FFFFFF" d="M87.6,5.2h2.5v2.2h0.1C90.5,6,91.8,5,93.2,5.1c0.3,0,0.6,0,0.9,0.1v2.4
							c-0.4-0.1-0.8-0.2-1.2-0.2c-0.8,0-1.5,0.3-2,0.8c-0.5,0.6-0.8,1.3-0.7,2.1v7.5h-2.6L87.6,5.2z"/>
						<path id="Shape_8_" fill="#FFFFFF" d="M106.2,14.2c-0.4,2.3-2.6,3.9-5.5,3.9c-3.7,0-6-2.5-6-6.4c0-4,2.3-6.6,5.9-6.6
							c3.5,0,5.7,2.4,5.7,6.3v0.9h-9v0.2c-0.1,0.9,0.2,1.9,0.9,2.6s1.6,1.1,2.5,1c1.3,0.1,2.5-0.6,2.9-1.8L106.2,14.2z M97.3,10.4
							l6.4,0c0-0.8-0.3-1.7-0.9-2.3c-0.6-0.6-1.4-0.9-2.3-0.9c-0.9,0-1.7,0.3-2.3,0.9C97.7,8.7,97.3,9.5,97.3,10.4z"/>
					</g>
				</g>
			</g>
			<g id="_Group_4" transform="translate(49.000000, 11.000000)">
				<g id="Group_2_">
					<path id="Shape_9_" fill="#FFFFFF" d="M4,1C5.1,1,6.2,1.4,7,2.2s1.1,1.9,1,3.1C8,8,6.5,9.6,4,9.6h-3V1H4z M2.3,8.4h1.6
						c0.8,0,1.6-0.3,2.1-0.9s0.8-1.4,0.7-2.2C6.7,4.5,6.5,3.7,6,3.1S4.6,2.2,3.9,2.2H2.3V8.4z"/>
					<path id="Shape_10_" fill="#FFFFFF" d="M9.4,6.3c-0.1-1.2,0.4-2.3,1.4-2.9s2.2-0.6,3.2,0s1.5,1.7,1.4,2.9
						C15.6,7.5,15,8.6,14,9.2c-1,0.6-2.2,0.6-3.2,0C9.9,8.6,9.3,7.5,9.4,6.3z M14.2,6.3c0-1.4-0.6-2.2-1.7-2.2
						c-1.1,0-1.7,0.8-1.7,2.2c0,1.4,0.6,2.2,1.7,2.2C13.5,8.6,14.2,7.7,14.2,6.3L14.2,6.3z"/>
					<polygon id="Shape_11_" fill="#FFFFFF" points="23.4,9.6 22.1,9.6 20.8,4.8 20.7,4.8 19.4,9.6 18.1,9.6 16.4,3.1 17.6,3.1
						18.8,8 18.9,8 20.2,3.1 21.4,3.1 22.7,8 22.8,8 23.9,3.1 25.2,3.1 					"/>
					<path id="Shape_12_" fill="#FFFFFF" d="M26.7,3.1h1.2v1H28c0.3-0.8,1.1-1.2,1.9-1.1c0.6,0,1.2,0.2,1.7,0.7
						c0.4,0.5,0.6,1.1,0.5,1.7v4.2h-1.3V5.7c0-1-0.4-1.5-1.4-1.5c-0.4,0-0.8,0.1-1.1,0.5C28,5,27.9,5.4,27.9,5.8v3.8h-1.3L26.7,3.1z
						"/>
					<polygon id="Shape_13_" fill="#FFFFFF" points="34.1,0.6 35.3,0.6 35.3,9.6 34.1,9.6 					"/>
					<path id="Shape_14_" fill="#FFFFFF" d="M37.1,6.3c-0.1-1.2,0.4-2.3,1.4-2.9s2.2-0.6,3.2,0s1.5,1.7,1.4,2.9
						c0.1,1.2-0.4,2.3-1.4,2.9c-1,0.6-2.2,0.6-3.2,0C37.5,8.6,37,7.5,37.1,6.3z M41.8,6.3c0-1.4-0.6-2.2-1.7-2.2
						c-1.1,0-1.7,0.8-1.7,2.2c0,1.4,0.6,2.2,1.7,2.2C41.2,8.6,41.8,7.7,41.8,6.3L41.8,6.3z"/>
					<path id="Shape_15_" fill="#FFFFFF" d="M44.4,7.7c0-1.2,0.9-1.8,2.4-1.9l1.7-0.1V5.2c0-0.7-0.4-1.1-1.3-1.1
						c-0.7,0-1.2,0.3-1.3,0.7h-1.2C44.8,3.7,45.8,3,47.3,3c1.6,0,2.5,0.8,2.5,2.2v4.4h-1.2V8.7h-0.1c-0.4,0.7-1.1,1-1.9,1
						C46,9.7,45.5,9.6,45,9.2C44.6,8.8,44.4,8.3,44.4,7.7z M48.5,7.2V6.7l-1.6,0.1c-0.9,0.1-1.3,0.4-1.3,0.9c0,0.6,0.5,0.9,1.2,0.9
						c0.4,0,0.8-0.1,1.1-0.4C48.3,8,48.5,7.6,48.5,7.2z"/>
					<path id="Shape_16_" fill="#FFFFFF" d="M51.4,6.3c0-2,1-3.3,2.6-3.3c0.8,0,1.6,0.4,2,1.1h0.1V0.6h1.3v8.9h-1.2v-1h-0.1
						c-0.4,0.7-1.2,1.2-2,1.1C52.4,9.7,51.4,8.4,51.4,6.3z M52.7,6.3c0,1.4,0.6,2.2,1.7,2.2c1.1,0,1.7-0.8,1.7-2.2
						c0-1.3-0.7-2.2-1.7-2.2C53.3,4.2,52.7,5,52.7,6.3L52.7,6.3z"/>
					<path id="Shape_17_" fill="#FFFFFF" d="M62.6,6.3C62.4,5.2,63,4.1,64,3.5c1-0.6,2.2-0.6,3.2,0c1,0.6,1.5,1.7,1.4,2.9
						c0.1,1.2-0.4,2.3-1.4,2.9c-1,0.6-2.2,0.6-3.2,0C63,8.6,62.4,7.5,62.6,6.3z M67.3,6.3c0-1.4-0.6-2.2-1.7-2.2
						c-1.1,0-1.7,0.8-1.7,2.2c0,1.4,0.6,2.2,1.7,2.2C66.6,8.6,67.3,7.7,67.3,6.3z"/>
					<path id="Shape_18_" fill="#FFFFFF" d="M70.2,3.1h1.2v1h0.1c0.3-0.8,1.1-1.2,1.9-1.1c0.6,0,1.2,0.2,1.7,0.7s0.6,1.1,0.5,1.7
						v4.2h-1.3V5.7c0-1-0.4-1.5-1.4-1.5c-0.4,0-0.8,0.1-1.1,0.5c-0.3,0.3-0.4,0.7-0.4,1.2v3.8h-1.3V3.1z"/>
					<path id="Shape_19_" fill="#FFFFFF" d="M82.8,1.5v1.6h1.4v1.1h-1.4v3.3c0,0.7,0.3,1,0.9,1c0.2,0,0.3,0,0.5,0v1.1
						c-0.2,0-0.5,0.1-0.7,0.1c-1.4,0-2-0.5-2-1.7V4.2h-1V3.2h1V1.5H82.8z"/>
					<path id="Shape_20_" fill="#FFFFFF" d="M85.9,0.6h1.2v3.5h0.1c0.3-0.8,1.1-1.2,1.9-1.2c0.6,0,1.2,0.2,1.7,0.7s0.6,1.1,0.5,1.7
						v4.2h-1.3V5.7c0-1-0.5-1.5-1.4-1.5c-0.4,0-0.9,0.1-1.2,0.4s-0.5,0.8-0.4,1.2v3.8h-1.3L85.9,0.6z"/>
					<path id="Shape_21_" fill="#FFFFFF" d="M98.7,7.8c-0.4,1.2-1.5,2-2.8,1.9c-0.8,0-1.7-0.3-2.2-1c-0.6-0.6-0.8-1.5-0.7-2.3
						c-0.1-0.9,0.1-1.7,0.7-2.4s1.4-1,2.2-1c1.8,0,2.8,1.2,2.8,3.2v0.4h-4.5v0.1c0,0.5,0.1,0.9,0.4,1.3c0.3,0.4,0.8,0.5,1.3,0.5
						c0.6,0.1,1.2-0.2,1.5-0.8L98.7,7.8z M94.2,5.8h3.2c0-0.4-0.1-0.9-0.4-1.2c-0.3-0.3-0.7-0.5-1.1-0.5c-0.4,0-0.9,0.2-1.2,0.5
						C94.4,4.9,94.2,5.3,94.2,5.8L94.2,5.8z"/>
				</g>
			</g>
		</g>
	</g>
</g>
</svg>
