<svg xmlns="http://www.w3.org/2000/svg" viewBox="0 0 169 56"><path fill="#A6A6A6" d="M155.1 0H10.6c-1 0-1.9.1-2.8.3-1 .1-1.9.4-2.7.8-.8.4-1.6 1-2.3 1.7-.7.7-1.2 1.4-1.6 2.3-.5.8-.8 1.7-.9 2.6-.2 1-.3 1.9-.3 2.8V45.5c0 .9.1 1.9.3 2.8.2.9.5 1.8.9 2.7.4.8 1 1.6 1.7 2.3.7.7 1.4 1.2 2.3 1.7.8.4 1.7.7 2.7.9.9.2 1.9.2 2.8.2H158c.9 0 1.9-.1 2.8-.2.9-.2 1.8-.5 2.7-.9.8-.4 1.6-1 2.3-1.7.7-.7 1.2-1.4 1.7-2.3.4-.8.7-1.7.9-2.7.2-.9.2-1.9.3-2.8v-1.3-30.8-1.5-1.3c0-.9-.1-1.9-.3-2.8-.2-.9-.4-1.8-.9-2.7-.9-1.7-2.2-3.1-3.9-3.9-.8-.4-1.8-.7-2.7-.9-.9-.2-1.9-.2-2.8-.2h-1.3c-.7-.1-1.2-.1-1.7-.1z"/><path d="M11.9 54.8h-1.3c-.9 0-1.8-.1-2.6-.2s-1.6-.4-2.3-.8c-.7-.4-1.4-.8-2-1.4-.6-.6-1.1-1.2-1.4-2-.4-.7-.6-1.5-.8-2.3-.1-.9-.2-1.7-.2-2.6V11.8v-1.3c0-.9.1-1.8.2-2.6s.4-1.6.8-2.3c.4-.7.9-1.4 1.4-2 .6-.6 1.2-1.1 2-1.4.7-.3 1.5-.6 2.3-.7.9-.1 1.8-.2 2.6-.2h147.3c.9 0 1.8.1 2.6.2s1.6.4 2.4.8c1.5.7 2.7 1.9 3.4 3.4.4.7.6 1.5.8 2.3.1.9.2 1.8.2 2.6v34.8c0 .9-.1 1.7-.2 2.6-.1.8-.4 1.6-.8 2.3-.4.7-.9 1.4-1.4 1.9-.6.6-1.2 1.1-2 1.4-.7.4-1.5.6-2.3.8-.9.1-1.8.2-2.6.2h-2.8l-143.3.2z"/><g><g fill="#FFF"><path d="M34.875 28.4c0-2.4 1.3-4.6 3.3-5.8-1.3-1.8-3.4-3-5.6-3-2.4-.2-4.7 1.4-5.9 1.4-1.2 0-3-1.4-5-1.3-2.6.1-5 1.5-6.3 3.8-2.8 4.7-.7 11.5 1.9 15.3 1.3 1.9 2.8 3.9 4.8 3.9 2-.1 2.7-1.2 5-1.2s3 1.2 5.1 1.2c2.1 0 3.4-1.9 4.7-3.7.9-1.3 1.7-2.8 2.1-4.3-2.5-1.2-4.1-3.6-4.1-6.3zM31.075 17.1c1.1-1.4 1.7-3.1 1.6-4.9-1.7.2-3.4 1-4.5 2.3-1.1 1.3-1.7 3-1.6 4.7 1.7.1 3.4-.7 4.5-2.1z"/></g><g fill="#FFF"><path d="M59.583 38h-6.7l-1.6 4.7h-2.8l6.3-17.4h2.9l6.3 17.4h-2.9l-1.5-4.7zm-6-2.2h5.3l-2.6-7.6h-.1l-2.6 7.6zM77.683 36.4c0 3.9-2.1 6.5-5.3 6.5-1.7.1-3.2-.8-4-2.2h-.1V47h-2.6V30h2.5v2.1c.8-1.4 2.4-2.3 4.1-2.2 3.3 0 5.4 2.5 5.4 6.5zm-2.7 0c0-2.6-1.3-4.3-3.4-4.3-2 0-3.3 1.7-3.3 4.3 0 2.6 1.3 4.3 3.3 4.3 2.1-.1 3.4-1.8 3.4-4.3zM91.683 36.4c0 3.9-2.1 6.5-5.3 6.5-1.7.1-3.2-.8-4-2.2h-.1V47h-2.6V30h2.5v2.1c.8-1.4 2.4-2.3 4.1-2.2 3.3 0 5.4 2.5 5.4 6.5zm-2.7 0c0-2.6-1.3-4.3-3.4-4.3-2 0-3.3 1.7-3.3 4.3 0 2.6 1.3 4.3 3.3 4.3 2.1-.1 3.4-1.8 3.4-4.3zM100.983 37.9c.2 1.7 1.9 2.9 4.2 2.9 2.2 0 3.8-1.1 3.8-2.7 0-1.3-1-2.2-3.2-2.7l-2.3-.6c-3.2-.8-4.7-2.3-4.7-4.7 0-3 2.6-5.1 6.4-5.1 3.7 0 6.2 2.1 6.3 5.1h-2.6c-.2-1.7-1.6-2.8-3.7-2.8s-3.6 1.1-3.6 2.6c0 1.2.9 2 3.2 2.5l1.9.5c3.6.8 5.1 2.3 5.1 4.8 0 3.3-2.6 5.3-6.8 5.3-3.9 0-6.5-2-6.7-5.1h2.7zM117.383 27v3h2.4v2.1h-2.4v7c0 1.1.5 1.6 1.6 1.6.3 0 .6 0 .9-.1v2c-.5.1-1 .1-1.5.1-2.6 0-3.6-1-3.6-3.4v-7.2h-1.9V30h1.9v-3h2.6zM121.183 36.4c0-4 2.4-6.5 6-6.5 3.7 0 6 2.5 6 6.5s-2.3 6.5-6 6.5c-3.6 0-6-2.5-6-6.5zm9.5 0c0-2.7-1.3-4.4-3.4-4.4-2.1 0-3.4 1.6-3.4 4.4 0 2.7 1.3 4.3 3.4 4.3 2.1 0 3.4-1.6 3.4-4.3zM135.483 30h2.5v2.2h.1c.3-1.4 1.6-2.4 3-2.3.3 0 .6 0 .9.1v2.4c-.4-.1-.8-.2-1.2-.2-.8 0-1.5.3-2 .8-.5.6-.8 1.3-.7 2.1v7.5h-2.6V30zM154.083 39c-.4 2.3-2.6 3.9-5.5 3.9-3.7 0-6-2.5-6-6.4 0-4 2.3-6.6 5.9-6.6 3.5 0 5.7 2.4 5.7 6.3v.9h-9v.2c-.1.9.2 1.9.9 2.6s1.6 1.1 2.5 1c1.3.1 2.5-.6 2.9-1.8l2.6-.1zm-8.9-3.8h6.4c0-.8-.3-1.7-.9-2.3-.6-.6-1.4-.9-2.3-.9-.9 0-1.7.3-2.3.9-.5.6-.9 1.4-.9 2.3z"/></g></g><g><g fill="#FFF"><path d="M53 12c1.1 0 2.2.4 3 1.2s1.1 1.9 1 3.1c0 2.7-1.5 4.3-4 4.3h-3V12h3zm-1.7 7.4h1.6c.8 0 1.6-.3 2.1-.9s.8-1.4.7-2.2c0-.8-.2-1.6-.7-2.2s-1.4-.9-2.1-.9h-1.6v6.2zM58.4 17.3c-.1-1.2.4-2.3 1.4-2.9s2.2-.6 3.2 0 1.5 1.7 1.4 2.9c.2 1.2-.4 2.3-1.4 2.9-1 .6-2.2.6-3.2 0-.9-.6-1.5-1.7-1.4-2.9zm4.8 0c0-1.4-.6-2.2-1.7-2.2s-1.7.8-1.7 2.2c0 1.4.6 2.2 1.7 2.2 1 .1 1.7-.8 1.7-2.2zM72.4 20.6h-1.3l-1.3-4.8h-.1l-1.3 4.8h-1.3l-1.7-6.5h1.2l1.2 4.9h.1l1.3-4.9h1.2l1.3 4.9h.1l1.1-4.9h1.3zM75.7 14.1h1.2v1h.1c.3-.8 1.1-1.2 1.9-1.1.6 0 1.2.2 1.7.7.4.5.6 1.1.5 1.7v4.2h-1.3v-3.9c0-1-.4-1.5-1.4-1.5-.4 0-.8.1-1.1.5-.3.3-.4.7-.4 1.1v3.8h-1.3l.1-6.5zM83.1 11.6h1.2v9h-1.2zM86.1 17.3c-.1-1.2.4-2.3 1.4-2.9s2.2-.6 3.2 0 1.5 1.7 1.4 2.9c.1 1.2-.4 2.3-1.4 2.9-1 .6-2.2.6-3.2 0s-1.5-1.7-1.4-2.9zm4.7 0c0-1.4-.6-2.2-1.7-2.2s-1.7.8-1.7 2.2c0 1.4.6 2.2 1.7 2.2 1.1.1 1.7-.8 1.7-2.2zM93.4 18.7c0-1.2.9-1.8 2.4-1.9l1.7-.1v-.5c0-.7-.4-1.1-1.3-1.1-.7 0-1.2.3-1.3.7h-1.2c.1-1.1 1.1-1.8 2.6-1.8 1.6 0 2.5.8 2.5 2.2v4.4h-1.2v-.9h-.1c-.4.7-1.1 1-1.9 1-.6 0-1.1-.1-1.6-.5-.4-.4-.6-.9-.6-1.5zm4.1-.5v-.5l-1.6.1c-.9.1-1.3.4-1.3.9 0 .6.5.9 1.2.9.4 0 .8-.1 1.1-.4.4-.2.6-.6.6-1zM100.4 17.3c0-2 1-3.3 2.6-3.3.8 0 1.6.4 2 1.1h.1v-3.5h1.3v8.9h-1.2v-1h-.1c-.4.7-1.2 1.2-2 1.1-1.7.1-2.7-1.2-2.7-3.3zm1.3 0c0 1.4.6 2.2 1.7 2.2s1.7-.8 1.7-2.2c0-1.3-.7-2.2-1.7-2.2-1.1.1-1.7.9-1.7 2.2zM111.6 17.3c-.2-1.1.4-2.2 1.4-2.8 1-.6 2.2-.6 3.2 0s1.5 1.7 1.4 2.9c.1 1.2-.4 2.3-1.4 2.9-1 .6-2.2.6-3.2 0-1-.7-1.6-1.8-1.4-3zm4.7 0c0-1.4-.6-2.2-1.7-2.2s-1.7.8-1.7 2.2c0 1.4.6 2.2 1.7 2.2 1 .1 1.7-.8 1.7-2.2zM119.2 14.1h1.2v1h.1c.3-.8 1.1-1.2 1.9-1.1.6 0 1.2.2 1.7.7s.6 1.1.5 1.7v4.2h-1.3v-3.9c0-1-.4-1.5-1.4-1.5-.4 0-.8.1-1.1.5-.3.3-.4.7-.4 1.2v3.8h-1.3v-6.6zM131.8 12.5v1.6h1.4v1.1h-1.4v3.3c0 .7.3 1 .9 1h.5v1.1c-.2 0-.5.1-.7.1-1.4 0-2-.5-2-1.7v-3.8h-1v-1h1v-1.7h1.3zM134.9 11.6h1.2v3.5h.1c.3-.8 1.1-1.2 1.9-1.2.6 0 1.2.2 1.7.7s.6 1.1.5 1.7v4.2H139v-3.8c0-1-.5-1.5-1.4-1.5-.4 0-.9.1-1.2.4s-.5.8-.4 1.2v3.8h-1.3l.2-9zM147.7 18.8c-.4 1.2-1.5 2-2.8 1.9-.8 0-1.7-.3-2.2-1-.6-.6-.8-1.5-.7-2.3-.1-.9.1-1.7.7-2.4s1.4-1 2.2-1c1.8 0 2.8 1.2 2.8 3.2v.4h-4.5v.1c0 .5.1.9.4 1.3.3.4.8.5 1.3.5.6.1 1.2-.2 1.5-.8l1.3.1zm-4.5-2h3.2c0-.4-.1-.9-.4-1.2-.3-.3-.7-.5-1.1-.5-.4 0-.9.2-1.2.5-.3.3-.5.7-.5 1.2z"/></g></g></svg>