<svg xmlns="http://www.w3.org/2000/svg" xmlns:xlink="http://www.w3.org/1999/xlink" width="800" height="197pt" viewBox="0 0 600 197"><defs><radialGradient xlink:href="#a" id="b" cx="145.503" cy="128.791" fx="145.503" fy="128.791" r="70.502" gradientTransform="matrix(1.7677 .04315 -.03947 1.61709 -106.619 -85.804)" gradientUnits="userSpaceOnUse"/><linearGradient id="a"><stop offset="0" stop-color="#fff"/><stop offset="1" stop-color="#13ffff" stop-opacity=".502"/></linearGradient></defs><path fill="#0d0d0d" stroke="#fff" stroke-width="5" d="M31.13 6.24C34.08 6 37.04 6.1 40 6.09c174.67.02 349.33-.03 523.99.02 16.31-.06 30.68 14.61 30.74 30.84.02 42.37.04 84.75-.01 127.13-.2 16.21-14.56 30.55-30.8 30.66-176.65.03-353.31.03-529.96 0C17.71 194.71 3.05 180.31 3.1 164c-.01-42.36-.01-84.72 0-127.07C3 21.6 15.92 7.64 31.13 6.24z"/><path d="M150.402 40.908a81.484 81.484 0 00-7.681.385c-8.8 1.013-17.853 2.454-25.76 6.627.213.813.666 2.44.893 3.254-1.774.866-3.56 1.692-5.36 2.506 1.64 5.173-4.174 6.493-6.64 9.773.626 2.507 2.84 3.934 5.226 4.56-.667 1.32-1.32 2.64-1.934 3.973 4.44-.84 6.96-4.999 10.16-7.799.214-3.68 3.52-4.241 6.36-4.908-.067-4.746 6.787-2.332 7.773-6.718 1.867-.454 3.747-.867 5.627-1.24a95.74 95.74 0 014.254-1.175c2.107 2.08 5.453 2.908 6.44 5.948.066-.454.173-1.373.24-1.84 2.373-.8 4.76-1.614 7.027-2.707 2.494.04 4.92.547 7.307 1.254l3.68-2.72c4.546 3.292 9.985 5.771 13.025 10.731 1.72-.44 4.107-2.212 4.934.481-2.32.733-4.654 1.441-6.934 2.281.893 5.254 8.175 5.173 10.815 9.266 1.746 2.693 4.253 4.6 7.333 5.533.947-.787 2.853-2.36 3.8-3.16l-1.026-1.2c1.027.134 3.093.426 4.133.573l-.668.08c.493 2.227.867 4.481 1.254 6.734 1.8 1.827 3.427 3.813 4.933 5.893-.053 2.213-.04 4.427 0 6.64 1.734.24 3.48.467 5.227.694.16.573.48 1.706.64 2.266a21.148 21.148 0 00-1.76 4.601c1.627 2.2 2.748 4.92 5.16 6.426 2.44-.507 3.12-2.734 3.8-4.787.24.093.721.294.974.4a254.925 254.925 0 00-2.455 4.64c.974 2.507 2.16 4.935 3 7.481.4 4.587-.24 9.198.414 13.772 1.52 6.28 3.84 13.32 10.32 16.04.934-1.146 1.933-2.252 2.733-3.519 2.92-19.493-.813-40.04-10.92-57.027a13.747 13.747 0 00-2.693-2.934c.066 3.36 2.16 6.08 3.427 9.053-1 .013-3 .014-4 .027-.013 3.294-.054 6.588-.334 9.881-3.573-4.12-5.16-9.306-5.453-14.68.64.24 1.946.706 2.586.932.667-.626 1.334-1.266 2-1.892-1.586-.64-3.186-1.294-4.773-1.934 2.187-.68 4.587-.96 6.306-2.64-3.466-2.734-4.253-7.412-7.613-10.239-16.409-18.608-41.03-29.662-65.797-29.586zM160 72.281c-2.423.069-4.647 1.025-5.854 3.479l-1.76-1.867c-.546.026-1.652.066-2.198.08-.614.373-1.842 1.134-2.456 1.507-.48 1.96-.986 3.92-1.586 5.854 1.52 1.253 3.068 2.48 4.655 3.666.613-1.987 1.159-3.988 1.799-5.96 2.266 5.92 9.32 7.08 12.933 11.92-.186 4.84 3.574 8.427 7.307 10.88 2.72.2 5.346-1.147 7.972-1.774a1018.62 1018.62 0 00-5.185-2.933c.587-3.347.706-6.787 1.586-10.067.347-1.653 1.774-3.412.947-5.105-2.8-3.693-6.72-6.375-11.107-7.828-2.007-1.1-4.63-1.92-7.053-1.852zm-41.03.785c-2.49-.005-4.965.558-7.45.721-.654 3.413-4.04 2.72-6.64 2.986a112.875 112.875 0 00-2.706 5.387 270.878 270.878 0 00-4.547-1.867c1.187 4.587 6.92 4.521 10.48 6.428 5.107 8.213-4.466 16.985-.84 25.572-1.613 2.333-3.295 4.653-4.535 7.213-2.733 4.613-2.132 10.161-2.586 15.281.467 5.107 2.667 9.854 4 14.774.52 2.413 2.693 3.812 4.28 5.505-1.56-3.973-2.812-8.107-3.092-12.4 2.36 2.627 2.56 6.347 3.732 9.533 2.227 2.707 2.48 6.148 2.174 9.508 3.134 2.693 6.52 5.093 9.787 7.613 4.734 2.92 10.573 3.453 15.2 6.586 2.573 1.76 3.614 4.841 5.494 7.201 1.986 1.054 4.12 1.787 6.213 2.614 1.626-.32 3.252-.627 4.892-.92-.106 2.426-.226 4.866-.346 7.293-1.346.56-2.708 1.106-4.054 1.68a68.547 68.547 0 00-1.373 6.16c5.866 3.24 10.214 8.333 15.281 12.56-.067 1.147-.227 3.44-.307 4.586 16.854-2.653 33.333-9.48 46.04-21.027 2.186-3.64 3.906-7.6 6.599-10.934-.88-.867-1.76-1.719-2.627-2.572-4.773 1.453-9.532 3.16-14.545 3.44-1.72-1.4-2.694-4.627-5.348-4.294-5.293.414-10.452-.92-15.199-3.146-5.573.427-11.187 2.306-16.707.812-2.466.534-4.266 2.495-6.066 4.121a161.83 161.83 0 00-5.707-.427c-.947-.547-1.893-1.08-2.826-1.627.093-2.294.199-4.6.279-6.893-2.693-1.173-5.548-1.827-8.494-1.867.52-2.413 1.32-4.852.867-7.332-2.853-1.8-4.813 1.64-6.973 2.986-1.813-1.013-3.667-2-5.334-3.24-1.96-3.693-.586-7.92 1.934-10.934 1.427-.373 2.853-.772 4.28-1.199 2.613 1.36 5.52 1.906 7.96-.174 4.773.907 6.386 6.067 10.666 7.6-.56-2.413-1.426-4.732-2.066-7.12.813-4.092 4.734-6.106 7.428-8.853-.067-5.48 3.612-9.667 6.892-13.627 2.96-1.146 5.84-2.44 8.613-3.96l-.107-2.52-3.572.693c-.267-.826-.788-2.48-1.041-3.32-1.947 1.107-3.88 2.24-5.987 3.014 2.36-3.974 6.975-4.8 10.895-6.412 1.08 1.72 2.012 3.598 3.492 5.025 1.613.053 3.227 0 4.84-.147-2.827-3.32-6.892-5.4-9.186-9.16-1.84-2.72-4.453-4.76-7.013-6.746-.907-.093-2.707-.266-3.614-.36-2.08-1.866-4.561-3.174-7.054-4.374.053-.24.161-.733.215-.986 2.226.173 4.358.96 6.558 1.347.867-1.56 1.748-3.094 2.654-4.64-5.56-4.374-10.48-13.307-18.76-10.614 1.8 4.254 6.28 5.44 10.08 7.147-.373 2.693-2.32 4.68-3.08 7.2.014 3.28-.079 6.613.868 9.786-.627 2.6-.92 5.254-1.32 7.88-1.974-1.88-3.387-4.212-3.6-6.985a57.763 57.763 0 00-5.895-1.987c-.426-.613-1.252-1.841-1.666-2.441 1.174-6.28 6.44-10.026 11.053-13.813-1.933-1.56-4.374-1.706-6.707-2.066a294.256 294.256 0 00-.478-4.934c-2.32.747-2.176 3.254-2.922 5.08-.427-.106-1.292-.334-1.72-.44.854-4.48-1.733-7.613-4.96-10.253-.587.093-1.773.252-2.36.332-.4.373-1.173 1.148-1.56 1.522 1.747 2.28 3.428 4.6 4.895 7.08-4.134-1.214-7.122-4.52-10.442-7.067-3.173-2.613-2.413-7.16-4.16-10.547-.357-.026-.712-.04-1.068-.04zm77.376 7.121c2.293 4.587 2.561 12.067 9.068 12.68-1.373-1.893-2.827-3.721-4.32-5.521 2.24 1.16 4.48 2.308 6.746 3.441a26.594 26.594 0 00-.387-5.04c-3.747-1.748-7.52-3.466-11.107-5.56zm-11.147 1.293c-1.546 1.24-3.08 2.48-4.6 3.747.534 1.266 1.08 2.534 1.614 3.8.547.347 1.627 1.027 2.174 1.373 1.893-1.92 3.16-4.28 3.746-6.906-.734-.507-2.2-1.507-2.934-2.014zm-38.937 82.807a12.347 12.347 0 00-2.596.193c3.733 2.054 8.227 2.386 11.613 5.2a98.104 98.104 0 015.934-.948l-2.094 1.348c2.347.587 4.735 1.053 7.149 1.293-.054-.613-.176-1.826-.229-2.44-.587-.266-1.759-.813-2.332-1.093-6.043.712-11.475-3.384-17.445-3.553z" transform="scale(.75)" fill="url(#b)"/><path fill="#fff" d="M316.63 38.38c1.19-.05 2.38-.09 3.58-.12-.01 10.82-.02 21.64.01 32.47-.89.02-2.68.07-3.57.1 0-10.82.05-21.64-.02-32.45zM358.71 38.43l3.59-.24c-.04 4.5.13 9.01-.21 13.51 3.36-3.99 10.21-4.48 13.56-.23 3.71 4.86 3.45 12.29-.41 17-3.46 3.73-9.99 3.7-13.31-.21.11 2.25-1.3 2.84-3.23 2.68.09-10.83.07-21.67.01-32.51zM388.26 38.35l3.3-.18c-.02 10.88-.03 21.76 0 32.64-1.1.01-2.19.03-3.28.05-.01-10.84.01-21.67-.02-32.51zM226.81 40.33l3.68-.09c3.57 10.14 6.71 20.43 10.42 30.52-1.3.02-2.58.02-3.87.01-.91-3.31-2.08-6.53-3.05-9.82-3.5.17-7.14-.49-10.55.36-1.32 3.08-2.15 6.34-3.13 9.54-1.19-.03-2.38-.05-3.56-.07 3.27-10.18 6.79-20.27 10.06-30.45zM301.94 40.91c1.59-1.82 3.56.24 3.95 1.96-.72.63-1.42 1.27-2.13 1.91-1.71-.37-3.65-2.35-1.82-3.87z"/><path fill="#0d0d0d" d="M224.17 58.35c1.64-4.81 2.94-9.72 4.57-14.52 1.37 4.88 2.79 9.76 4.6 14.51-3.06-.03-6.12-.02-9.17.01z"/><path fill="#fff" d="M246.34 48.69c1.25.03 2.5.07 3.76.1 1.86 6.19 4.19 12.22 6.16 18.37 2.26-6.05 3.77-12.41 6.47-18.27.82-.07 2.46-.2 3.29-.27-2.42 7.5-5.44 14.79-8.12 22.2l-3.27.03c-2.76-7.38-5.5-14.78-8.29-22.16zM301.63 48.84c1.05-.11 2.11-.23 3.17-.34.26 2.15.39 4.33.35 6.5-.01 5.23-.03 10.46.05 15.69-1.19.06-2.39.11-3.58.16.01-7.34 0-14.67.01-22.01zM331.7 49.98c3.74-1.43 8.2-2.34 11.95-.49 2 1.05 2.96 3.35 2.94 5.53.14 5.42.02 10.84.06 16.26-1.86-.11-2.88-1.28-3.44-2.92-2.63 2.64-7.02 4.01-10.32 1.76-3.55-2.07-3.66-8.29.27-10.01 3.18-1.39 6.79-.78 10.17-.89-.03-1.78-.05-3.57-.07-5.35-.33-.53-.99-1.59-1.32-2.13-3.43-.74-6.84.05-10.18.74-.02-.63-.04-1.87-.06-2.5zM453.74 48.77c3.86-.94 8.37.3 10.69 3.66 3.05 4.61 2.95 11.22-.48 15.6-4.14 4.6-12.59 4.2-15.92-1.14-3.76-6.04-1.88-16.17 5.71-18.12z"/><path fill="#0d0d0d" d="M145.31 48.91c2.47 1.26 5.1 2.42 6.21 5.2-.6.47-1.2.94-1.8 1.4-1.39-1.26-2.76-2.53-4.2-3.73-.05-.72-.16-2.15-.21-2.87z"/><path fill="#fff" d="M274.77 49.92c3.71-1.43 8.15-2.24 11.86-.36 2.23 1.28 2.92 4.03 2.91 6.44.01 4.94.05 9.88 0 14.82-.66.02-2 .07-2.66.09-.12-.67-.36-2.01-.48-2.67-3.57 3.83-10.33 4.15-13.15-.7.15-2.27-.57-5.14 1.65-6.65 3.16-2.56 7.62-1.43 11.39-1.68.03-2.53-.17-5.06-1.12-7.42-3.61-.75-7.24-.17-10.72.83l.32-2.7zM404.58 51.44c2.81-2.79 7.48-3.96 11.06-1.98 3.89 1.97 5.13 7.01 4.12 11-5.06-.05-10.13-.08-15.18.02.91 2.49 1.19 5.76 3.83 7.14 3.31 1.91 7.24.55 10.7-.16l-.48 2.64c-4.58 1.53-10.28 1.96-14.07-1.59-4.02-4.72-3.8-12.31.02-17.07zM476.71 49.36c.75-.21 2.26-.64 3.01-.85.02.89.07 2.68.09 3.58 2.66-2.62 6.65-4.69 10.39-3.07 2.85.97 4.34 4.07 4.44 6.93.2 4.95 0 9.9.1 14.86-.84.02-2.52.05-3.36.06-.08-4.91.09-9.83-.06-14.75-.06-1.86-1.14-3.72-2.87-4.48-2.97-.93-6.21.54-7.91 3.03-.51 5.36-.06 10.78-.2 16.16-1.2-.04-2.39-.07-3.57-.11 0-7.12.09-14.24-.06-21.36z"/><path fill="#0d0d0d" d="M366.37 51.51c2.27-.49 5.23-.44 6.65 1.74 2.26 3.4 2.18 7.97.87 11.7-1.83 4.32-8.56 5.05-10.97.9-1.05-2.85-.56-5.98-.64-8.96-.37-2.56 1.89-4.6 4.09-5.38zM408.49 51.76c2.1-.89 4.41-.28 6.57.04.87 1.85 1.52 3.79 2.03 5.77-4.02.1-8.05.08-12.08.04.76-2.13 1.41-4.6 3.48-5.85zM453.53 51.7c2.67-.82 6.22-.74 7.92 1.85 2.6 3.95 2.44 9.65-.54 13.38-2.91 2.62-8.42 2.23-10.14-1.59-1.93-4.42-1.86-10.93 2.76-13.64zM335.14 61.97c2.68-.53 5.44-.27 8.16-.34 0 1.3.01 2.59.05 3.89-1.83 1.94-4.43 3.58-7.2 2.93-2.9-.5-3.6-5.06-1.01-6.48zM278.17 68.21c-2.14-1.43-2.37-4.76-.19-6.25 2.8-.49 5.66-.28 8.49-.3-.26 1.84-.66 3.64-1.26 5.4-2.23.79-4.65 2.19-7.04 1.15z"/><path fill="#fff" d="M251.73 89.49c3.36-.1 6.73-.23 10.1-.26-.03 9.29.04 18.59-.04 27.88 5.28-6.59 15.57-9.25 22.85-4.39 4.86 3.39 6.46 9.62 6.57 15.25.02 9.55-.01 19.1 0 28.65-3.33.03-6.66.03-9.98.02-.02-9.22.08-18.44-.04-27.65-.24-3.78-1.22-8.68-5.38-9.94-5.34-1.9-10.5 1.54-13.99 5.31.01 10.76-.02 21.52.02 32.28-3.38.01-6.75.02-10.12-.06.02-22.36 0-44.73.01-67.09zM485.58 89.46c3.38-.06 6.75-.2 10.13-.24-.03 9.27.07 18.54-.05 27.81 3.3-5.05 9.61-7.42 15.49-6.72 7.91.43 14.1 7.17 15.8 14.59 2.37 10.69.66 24.21-9.53 30.36-7.24 4.13-17.82 3.09-22.77-4.1-.63 1.82-1.22 3.65-1.86 5.46-2.49.03-4.97.03-7.45.02.47-22.39.15-44.79.24-67.18zM394.6 93.56c3.63.03 7.27.03 10.9-.01 4.25 16.88 7.45 34.01 11.43 50.95.11-4.55 1.18-8.97 2.01-13.42 2.46-12.52 5.08-25.01 7.67-37.5 3.49 0 6.98-.01 10.47 0-4.58 21.08-9.98 41.99-14.72 63.03-3.88.05-7.75.05-11.61-.01-3.35-16.43-7.73-32.64-10.8-49.12-3.64 16.42-7.57 32.78-11.39 49.16-3.79-.05-7.58.17-11.35-.11-5.24-20.87-9.85-41.98-14.84-62.95 3.64 0 7.28-.01 10.92.01 3.51 17.01 7.13 34.01 10.2 51.11 2.94-17.2 7.26-34.13 11.11-51.14zM224.56 101.19c3-.76 6.02-1.43 9.04-2.08.06 4.02.05 8.03.01 12.05 3.7-.02 7.4-.02 11.11-.02-.09 2.53-.19 5.07-.28 7.6-3.61.03-7.21.03-10.82.01.07 7.72-.06 15.45.05 23.17 0 2.57.84 5.71 3.45 6.78 2.36 1.31 5.01.07 7.46-.27.07 2.68.11 5.35.13 8.03-4.46 1.07-9.25 1.68-13.75.59-5.06-1.61-7.09-7.17-7.25-12.03-.15-8.75-.06-17.52-.03-26.27-2.11.01-4.21.01-6.31-.01.12-2.42.28-4.83.49-7.24 2.09-.1 4.18-.2 6.28-.28.16-3.35.34-6.69.42-10.03zM303.81 116.83c6.27-7.28 18.12-8.73 26.17-3.66 7.1 4.82 8.77 14.43 7.43 22.39-1.17 1.14-2.94.53-4.38.71-8.48-.18-16.98.26-25.45-.26.72 4.33 1.66 9.48 5.93 11.73 4.36 2.77 9.76 1.73 14.62 1.5 2.13-.63 4.29-1.22 6.4-1.98.42 2.51.89 5.01 1.21 7.54-2.83 1.1-5.78 1.82-8.74 2.48-6.59.46-13.74.97-19.56-2.77-7.84-4.41-10.12-14.26-9.64-22.62.72-5.38 2.11-11.04 6.01-15.06zM442.02 119.96c5.83-10.61 22.1-13.13 30.91-4.91 5.09 5.6 6.82 14.03 4.67 21.24-9.77-.14-19.54.06-29.31-.12.17 5.4 2.95 11.31 8.55 12.8 6.12 1.47 12.58.36 18.45-1.69.24 2.47.52 4.94.98 7.38-6.02 2.83-12.8 3.18-19.33 2.81-7.69-.57-14.83-5.94-17.07-13.39-2.39-7.86-1.95-16.9 2.15-24.12z"/><path fill="#0d0d0d" d="M314.43 118.77c3.54-1.93 8.32-1.27 11.18 1.58 2.28 2.3 2.45 5.75 2.82 8.78-6.78.01-13.57 0-20.36.01.56-4.09 2.3-8.64 6.36-10.37zM453.56 119.61c3.76-2.82 9.71-2.59 12.92.97 2.07 2.34 2.16 5.6 2.37 8.56-6.8-.01-13.6 0-20.4-.01.87-3.52 1.98-7.34 5.11-9.52zM502.41 119.01c3.37-1.1 7.52-.99 10.3 1.47 3.88 3.21 4.87 8.61 4.88 13.39-.1 4.44-.82 9.35-4.06 12.67-4.89 5.29-15.57 3.42-17.38-3.92-.95-4.8-.23-9.79-.46-14.66-.43-4.17 3.23-7.41 6.72-8.95z"/><rect width="589.954" height="189.209" x="3.349" y="6.116" ry="29.581" opacity=".502" fill="none" stroke="#000" stroke-width="6" stroke-linecap="round" stroke-linejoin="round" paint-order="markers fill stroke"/></svg>